<?xml version="1.0" encoding="UTF-8" standalone="no"?>
<svg
   xmlns:svg="http://www.w3.org/2000/svg"
   xmlns="http://www.w3.org/2000/svg"
   xmlns:sodipodi="http://sodipodi.sourceforge.net/DTD/sodipodi-0.dtd"
   xmlns:inkscape="http://www.inkscape.org/namespaces/inkscape"
   version="1.1"
   x="0px"
   y="0px"
   width="86px"
   height="86px"
   viewBox="0 0 86 86"
   enable-background="new 0 0 86 86"
   xml:space="preserve"
   inkscape:version="0.92.5 (2060ec1f9f, 2020-04-08)"
   sodipodi:docname="harbour-logger-ofono.svg">
  <g>
    <linearGradient
        id="SVGID_1_"
        gradientUnits="userSpaceOnUse"
        x1="12.8062"
        y1="12.8066"
        x2="85.2829"
        y2="85.2833">
      <stop
          offset="0.0049"
          style="stop-color:#ffb757;stop-opacity:1"/>
      <stop
          offset="1"
          style="stop-color:#e36c34;stop-opacity:1"/>
    </linearGradient>
    <path
        d="M85.699,43c0-23.582-19.117-42.7-42.7-42.7C19.417,0.3,0.3,19.418,0.3,43   c0,23.583,19.117,42.7,42.7,42.7c0.636,0,41.277,0,41.277,0c0.786,0,1.423-0.637,1.423-1.423C85.7,84.277,85.699,43.636,85.699,43z   "
        fill="url(#SVGID_1_)"/>
  </g>
  <circle
      style="opacity:0.337;fill:#ffffff;fill-opacity:1;fill-rule:nonzero;stroke:none;stroke-width:1.59507585"
      cx="43"
      cy="43"
      r="31"/>
  <g
      transform="matrix(2.997423,0,0,3.1000509,61.42846,1.850079)">
    <g>
      <path
          style="fill-rule:evenodd;stroke-width:4.05610228"
          d="M 42.927734 6.5332031 C 22.674003 6.5332028 6.2558594 22.906844 6.2558594 43.103516 C 6.2558594 63.300186 22.674005 79.671875 42.927734 79.671875 C 50.72327 79.671875 57.938573 77.227392 63.884766 73.089844 L 70.6875 79.875 C 73.199859 82.343735 76.457875 81.895405 78.787109 79.601562 C 81.632743 76.799188 82.098092 73.292153 79.767578 70.746094 L 73 64 C 77.149237 58.070554 79.601563 50.877089 79.601562 43.103516 C 79.601562 22.906845 63.181463 6.5332028 42.927734 6.5332031 z M 43 13 A 30 30 0 0 1 73 43 A 30 30 0 0 1 43 73 A 30 30 0 0 1 13 43 A 30 30 0 0 1 43 13 z "
          transform="matrix(0.33361991,0,0,0.32257535,-20.493757,-0.59678988)"/>
    </g>
  </g>
  <g
      transform="translate(-10.567792)">
    <rect
        transform="rotate(11)"
        ry="0"
        y="10.361267"
        x="54.014145"
        height="44.8"
        width="5.6"
        style="opacity:0.8;fill:#c92600;fill-opacity:1;stroke:#000000;stroke-width:0;stroke-linecap:butt;stroke-linejoin:miter;stroke-miterlimit:0;stroke-dasharray:none;stroke-opacity:1"/>
    <rect
        transform="rotate(11)"
        ry="0"
        y="8.8162384"
        x="61.962627"
        height="44.8"
        width="5.6"
        style="opacity:0.8;fill:#797979;fill-opacity:1;stroke:#000000;stroke-width:0;stroke-linecap:butt;stroke-linejoin:miter;stroke-miterlimit:0;stroke-dasharray:none;stroke-opacity:1"/>
    <rect
        transform="rotate(11)"
        ry="0"
        y="12.67121"
        x="69.91111"
        height="34"
        width="5.6"
        style="opacity:0.8;fill:#797979;fill-opacity:1;stroke:#000000;stroke-width:0;stroke-linecap:butt;stroke-linejoin:miter;stroke-miterlimit:0;stroke-dasharray:none;stroke-opacity:1"/>
    <rect
        transform="rotate(11)"
        ry="0"
        y="17.306295"
        x="46.065659"
        height="34"
        width="5.6"
        style="opacity:0.8;fill:#c92600;fill-opacity:1;stroke:#000000;stroke-width:0;stroke-linecap:butt;stroke-linejoin:miter;stroke-miterlimit:0;stroke-dasharray:none;stroke-opacity:1"/>
    <rect
        transform="rotate(11)"
        ry="0"
        y="27.691324"
        x="38.11718"
        height="16.32"
        width="5.6"
        style="opacity:0.8;fill:#c92600;fill-opacity:1;stroke:#000000;stroke-width:0;stroke-linecap:butt;stroke-linejoin:miter;stroke-miterlimit:0;stroke-dasharray:none;stroke-opacity:1"/>
    <rect
        transform="rotate(11)"
        ry="0"
        y="19.966181"
        x="77.859596"
        height="16.32"
        width="5.6"
        style="opacity:0.8;fill:#797979;fill-opacity:1;stroke:#000000;stroke-width:0;stroke-linecap:butt;stroke-linejoin:miter;stroke-miterlimit:0;stroke-dasharray:none;stroke-opacity:1"/>
  </g>
</svg>
